<svg xmlns="http://www.w3.org/2000/svg" viewBox="0 0 960 640" role="img" aria-labelledby="title desc">
  <title id="title">MBTI Hero Illustration</title>
  <desc id="desc">Abstract hero image illustrating personality diversity</desc>
  <defs>
    <linearGradient id="bg" x1="0%" y1="0%" x2="100%" y2="100%">
      <stop offset="0%" stop-color="#4a69bd" />
      <stop offset="100%" stop-color="#74b9ff" />
    </linearGradient>
    <linearGradient id="accent" x1="0%" y1="0%" x2="100%" y2="0%">
      <stop offset="0%" stop-color="#ffeaa7" />
      <stop offset="100%" stop-color="#ff7675" />
    </linearGradient>
  </defs>
  <rect width="960" height="640" fill="url(#bg)" />
  <g fill="none" stroke="rgba(255,255,255,0.35)" stroke-width="2">
    <circle cx="140" cy="160" r="90" />
    <circle cx="770" cy="120" r="140" />
    <circle cx="300" cy="520" r="120" />
  </g>
  <g fill="rgba(255,255,255,0.65)">
    <path d="M200 280c20-80 110-120 190-80s100 140 40 210c-60 70-190 80-230-50z" />
    <path d="M530 200c40-70 130-100 190-60s80 130 30 200-150 80-220 20c-40-36-50-100 0-160z" />
  </g>
  <g>
    <path d="M470 360c60-40 140-10 160 70s-40 150-120 150-140-90-130-160 60-90 90-60z" fill="rgba(255,255,255,0.25)" />
    <circle cx="480" cy="360" r="110" fill="url(#accent)" opacity="0.85" />
    <circle cx="480" cy="360" r="60" fill="white" opacity="0.9" />
  </g>
</svg>
